<svg xmlns="http://www.w3.org/2000/svg" width="493" height="493"><path d="M229.391 1.036c-41.219 2.737-83.819 17.12-117.891 39.803-15.84 10.546-25.69 18.599-38.876 31.785C29.666 115.582 4.906 170.493 1.04 231.379c-2.733 43.053 5.485 84.359 24.519 123.243C62.009 429.08 131.131 478.82 214.5 490.58c16.244 2.292 47.756 2.292 64 0 28.124-3.967 52.588-11.45 77-23.552 49.425-24.503 87.132-62.218 111.504-111.528 14.615-29.572 22.32-57.778 25.13-92 .542-6.6 1.228-14.408 1.524-17.352.329-3.269.112-5.778-.56-6.45-.604-.604-1.1-4.27-1.103-8.148-.006-9.121-3.132-30.262-6.505-43.996-10.529-42.866-33.542-83.607-64.989-115.055-38.205-38.205-89.441-63.422-142.002-69.89C262.503.641 244.177.053 229.391 1.036M229 13.59c-37.198 4.306-59.125 10.473-87.225 24.532-52.189 26.11-93.691 72.348-114.204 127.235-9.626 25.756-14.007 51.136-14.007 81.143 0 23.858 1.553 36.786 6.982 58.143 20.839 81.972 86.101 147.19 168.029 167.915 140.183 35.463 277.836-62.258 290.483-206.214C487.4 171.39 436.305 80.558 350.425 37.669 327.989 26.465 304.852 19.185 280 15.511c-10.814-1.599-43.235-2.82-51-1.921m1 5.058c-58.09 5.438-105.968 27.355-144.982 66.37-88.999 88.998-89.022 233.047-.052 322.016 35.162 35.162 78.181 56.705 129.034 64.617 15.841 2.464 48.064 2.472 64 .016 69.335-10.687 126.568-48.485 162.8-107.518 15.546-25.33 25.982-54.456 30.867-86.149 2.456-15.936 2.448-48.159-.016-64-5.649-36.31-17.068-65.831-36.938-95.5C396.863 61.984 334.832 25.426 266 19.069c-10.684-.987-27.817-1.187-36-.421m-7 6.412a222.621 222.621 0 00-74.88 22.015c-25.237 12.582-42.215 25.001-61.681 45.117-17.761 18.354-28.914 34.351-40.522 58.119-29.489 60.384-29.106 133.308 1.017 193.71C85.053 420.454 161.394 468 246 468c122.459 0 222-99.541 222-222 0-109.434-79.907-202.501-188.5-219.544-12.022-1.887-44.686-2.694-56.5-1.396m69.223 42.497c-2.802 1.962-3.022 7.41-.394 9.788 2.48 2.245 6.741 2.085 9.171-.345 2.278-2.278 2.5-4.182.85-7.316-2.13-4.046-5.746-4.846-9.627-2.127m27.109.352c-15.915 4.044-24.258 21.302-17.388 35.97l2.443 5.217-22.425 22.442-22.426 22.443 2.242 2.241 2.241 2.242 22.443-22.426 22.442-22.425 5.039 2.36c12.741 5.968 28.412.26 34.186-12.451 2.441-5.374 2.441-15.67 0-21.044-4.769-10.499-18.158-17.272-28.797-14.569M193 96.288c-1.949.982-2.566 2.154-2.8 5.322-.326 4.424.687 5.822 5.005 6.905 2.105.529 3.252.119 5.245-1.874 3.207-3.207 3.236-6.046.095-9.186-2.773-2.774-3.982-2.961-7.545-1.167m-31.97 7.295c-4.571 1.983-6.838 4.124-9.136 8.627-5.701 11.17 2.748 24.79 15.379 24.79 2.528 0 5.836-.471 7.35-1.047 2.633-1.001 3.259-.542 14.33 10.5C195.32 152.804 201.016 158 201.61 158c.594 0 1.912-.919 2.928-2.042 1.825-2.017 1.7-2.192-10.229-14.25L182.233 129.5l1.338-3c1.914-4.289 1.728-9.993-.465-14.29-2.339-4.583-4.61-6.687-9.36-8.672-4.575-1.911-8.235-1.898-12.716.045m57.862 45.725c-13.219 5.547-21.137 15.285-23.917 29.413-4.991 25.367 19.268 49.452 44.605 44.284 12.571-2.564 22.437-10.231 28.159-21.884 2.489-5.068 2.759-6.654 2.737-16.121-.021-9.625-.271-10.996-3-16.446-3.792-7.577-10.777-14.573-18.175-18.206-4.939-2.425-7.213-2.889-15.301-3.12-8.108-.233-10.321.072-15.108 2.08m7.836 15.967c-18.631 6.05-19.617 31.608-1.51 39.172 11.547 4.823 25.062-2.403 27.858-14.896 3.438-15.365-11.475-29.105-26.348-24.276m86.772-.361c-7.427 1.861-13.712 7.485-15.389 13.771l-.752 2.815-11.679.282-11.68.281V188h22.728l1.695 4.436c3.005 7.87 11.438 13.561 20.077 13.549 5.174-.008 13.085-4.401 16.085-8.934 2.938-4.439 4.127-11.443 2.98-17.554-.736-3.928-6.312-10.807-10.49-12.943-3.48-1.78-9.915-2.558-13.575-1.64m-123.25 58.324l-11.181 11.182-4.785-1.715C158.094 226.902 143 236.693 143 253c0 12.646 9.197 21.926 21.782 21.978 12.955.054 22.18-9.091 22.17-21.978-.003-3.248-.765-7.138-1.862-9.5l-1.857-4 11.415-11.546 11.414-11.547-2.315-2.175-2.315-2.175-11.182 11.181m71.405-9.409c-.91 1.006-1.655 2.246-1.655 2.756 0 .51 13.263 14.185 29.473 30.388 29.072 29.06 29.452 29.492 27.931 31.814-2.841 4.336-4.511 10.66-4.52 17.115-.007 5.153.597 7.633 3.099 12.714 5.405 10.98 14.717 16.755 27.017 16.755 9.102 0 15.38-2.641 21.689-9.124 11.461-11.777 10.781-32.603-1.413-43.31-6.625-5.816-10.994-7.413-20.276-7.411-7.389.002-9.206.372-13.901 2.831l-5.4 2.829-29.606-29.593C277.81 225.317 264.223 212 263.899 212c-.324 0-1.334.823-2.244 1.829M.31 246.5c.005 3.3.192 4.529.415 2.732.222-1.797.218-4.497-.01-6-.229-1.503-.411-.032-.405 3.268M295 277c-4.09 4.09-1.046 11 4.845 11 3.594 0 6.155-2.777 6.155-6.674 0-5.761-6.865-8.461-11-4.326m.242 18.034c-5.3 2.13-5.149 9.684.243 12.141 5.219 2.378 10.62-3.14 8.508-8.693-.731-1.923-4.956-4.882-6.308-4.419-.102.035-1.201.472-2.443.971M187 376v30h13v-60h-13v30m73-25v5h18v50h12v-50h18v-10h-48v5m-36.97 11.061c-14.117 5.927-18.585 25.921-8.441 37.772 4.581 5.352 10.415 7.527 18.762 6.996 7.883-.502 13.448-3.931 17.462-10.759 2.271-3.862 2.687-5.732 2.687-12.07 0-6.417-.405-8.189-2.805-12.272-4.206-7.156-9.389-10.148-18.105-10.455-3.899-.137-8.202.218-9.56.788m3.271 9.897c-3.829 2.334-5.811 8.308-4.918 14.822.785 5.728 2.059 7.88 5.809 9.819 2.593 1.341 3.793 1.422 6.965.472 4.941-1.48 7.241-5.631 7.241-13.071 0-6.901-2.282-11.415-6.517-12.892-4.248-1.481-4.857-1.42-8.58.85" fill="undefined" fill-rule="evenodd"/></svg>